<?xml version="1.0" ?><svg viewBox="0 0 64 64" xmlns="http://www.w3.org/2000/svg"><defs><style>.cls-1{fill:#eee;}.cls-2,.cls-6{fill:#bf7e68;}.cls-2,.cls-3,.cls-5,.cls-7{stroke:#4c241d;stroke-linecap:round;stroke-linejoin:round;stroke-width:2px;}.cls-3,.cls-5{fill:none;}.cls-3{stroke-dasharray:2 3;}.cls-4{fill:#4c241d;}.cls-7{fill:#ffce56;}</style></defs><g id="wallet"><circle class="cls-1" cx="36" cy="27.9999" r="23"/><rect class="cls-2" height="38" rx="4.4215" width="48" x="4" y="21"/><line class="cls-3" x1="7" x2="49" y1="54" y2="54"/><rect class="cls-2" height="9" rx="1.4701" width="12" x="42" y="37"/><circle class="cls-4" cx="46.5" cy="41.5" r="1.5"/><line class="cls-5" x1="53.5858" x2="56.4142" y1="15.5858" y2="18.4142"/><line class="cls-5" x1="56.4142" x2="53.5858" y1="15.5858" y2="18.4142"/><circle class="cls-4" cx="50.049" cy="8.3683" r="1.1324"/><path class="cls-6" d="M52,32h0a5,5,0,0,0-5-5H9v9"/><path class="cls-5" d="M9,27H47a5,5,0,0,1,5,5h0"/><polyline class="cls-5" points="29 38 26 38 26 44"/><line class="cls-5" x1="29" x2="26" y1="41" y2="41"/><polyline class="cls-5" points="23 42 19 38 19 44"/><line class="cls-5" x1="23" x2="23" y1="38" y2="44"/><line class="cls-5" x1="32" x2="36" y1="38" y2="38"/><line class="cls-5" x1="34" x2="34" y1="44" y2="38"/><circle class="cls-7" cx="12" cy="41" r="3"/><line class="cls-5" x1="18" x2="18" y1="13" y2="17"/><line class="cls-5" x1="16" x2="20" y1="15" y2="15"/><circle class="cls-4" cx="31.5532" cy="7.2188" r="1.0691"/></g></svg>