<?xml version="1.0" ?><svg viewBox="0 0 64 64" xmlns="http://www.w3.org/2000/svg"><defs><style>.cls-1{fill:#eee;}.cls-2{fill:#ffce56;}.cls-2,.cls-3,.cls-5,.cls-6,.cls-7{stroke:#4c241d;stroke-linecap:round;stroke-linejoin:round;stroke-width:2px;}.cls-3{fill:none;}.cls-4{fill:#4c241d;}.cls-5{fill:#ffe8dc;}.cls-6{fill:#ffded5;}.cls-7{fill:#9dc1e4;}</style></defs><g id="win"><circle class="cls-1" cx="30.011" cy="31" r="23"/><circle class="cls-2" cx="30" cy="16" r="13"/><polyline class="cls-3" points="32 13 29 13 29 19"/><line class="cls-3" x1="32" x2="29" y1="16" y2="16"/><polyline class="cls-3" points="26 17 22 13 22 19"/><line class="cls-3" x1="26" x2="26" y1="13" y2="19"/><line class="cls-3" x1="35" x2="39" y1="13" y2="13"/><line class="cls-3" x1="37" x2="37" y1="19" y2="13"/><line class="cls-3" x1="46.5858" x2="49.4142" y1="50.5858" y2="53.4142"/><line class="cls-3" x1="49.4142" x2="46.5858" y1="50.5858" y2="53.4142"/><circle class="cls-4" cx="58.0044" cy="54.1126" r="1.0691"/><circle class="cls-3" cx="10" cy="49" r="2"/><path class="cls-5" d="M41,28h2a2,2,0,0,1,2,2v0a2,2,0,0,1-2,2H41a0,0,0,0,1,0,0V28A0,0,0,0,1,41,28Z" transform="translate(13 73) rotate(-90)"/><path class="cls-2" d="M28.3234,33H36a0,0,0,0,1,0,0v0a4,4,0,0,1-4,4H26a0,0,0,0,1,0,0V35.3234A2.3234,2.3234,0,0,1,28.3234,33Z"/><path class="cls-6" d="M26,37h8a0,0,0,0,1,0,0v9a0,0,0,0,1,0,0H30.1888A4.1888,4.1888,0,0,1,26,41.8112V37A0,0,0,0,1,26,37Z"/><path class="cls-5" d="M16,28h2a2,2,0,0,1,2,2v0a2,2,0,0,1-2,2H16a0,0,0,0,1,0,0V28a0,0,0,0,1,0,0Z" transform="translate(-12 48) rotate(-90)"/><path class="cls-7" d="M36,61l1-11,7.3169-6.4946A2.0006,2.0006,0,0,0,45,42V32H41v9.0923L35.3912,46H25.6088L20,41.0923V32H16V42a2.0006,2.0006,0,0,0,.6831,1.5054L24,50l1,11"/><line class="cls-3" x1="47" x2="51" y1="16" y2="16"/><line class="cls-3" x1="47" x2="48.5" y1="13" y2="11.5"/><line class="cls-3" x1="47" x2="48.5" y1="19" y2="20.5"/><line class="cls-3" x1="13" x2="9" y1="16" y2="16"/><line class="cls-3" x1="13" x2="11.5" y1="13" y2="11.5"/><line class="cls-3" x1="13" x2="11.5" y1="19" y2="20.5"/></g></svg>